<svg data-v-423bf9ae="" xmlns="http://www.w3.org/2000/svg" viewBox="0 0 426 90" class="iconLeft"><!----><!----><!----><g data-v-423bf9ae="" id="7dedee41-e471-492a-9fdc-1ecc293db635" fill="#E9E9E9" transform="matrix(5.272407679843658,0,0,5.272407679843658,106.61518036273765,18.69068370371315)"><path d="M2.84 4.76L2.84 5.32L2.84 5.32Q2.84 7.07 3.23 7.90L3.23 7.90L3.23 7.90Q3.61 8.72 4.65 8.72L4.65 8.72L4.77 8.72L4.77 8.72Q6.29 8.72 6.29 6.78L6.29 6.78L8.55 6.78L8.55 6.90L8.55 6.90Q8.55 8.89 7.59 9.79L7.59 9.79L7.59 9.79Q6.62 10.68 4.65 10.68L4.65 10.68L4.65 10.68Q2.51 10.68 1.53 9.41L1.53 9.41L1.53 9.41Q0.55 8.15 0.55 5.32L0.55 5.32L0.55 4.76L0.55 4.76Q0.55 1.93 1.53 0.66L1.53 0.66L1.53 0.66Q2.51-0.60 4.65-0.60L4.65-0.60L4.65-0.60Q6.64-0.60 7.59 0.30L7.59 0.30L7.59 0.30Q8.55 1.20 8.55 3.22L8.55 3.22L8.55 3.72L6.29 3.72L6.29 3.72Q6.29 2.52 5.96 1.94L5.96 1.94L5.96 1.94Q5.63 1.36 4.77 1.36L4.77 1.36L4.65 1.36L4.65 1.36Q3.61 1.36 3.23 2.18L3.23 2.18L3.23 2.18Q2.84 3.01 2.84 4.76L2.84 4.76ZM16.24 10.50L14.25 10.50L14.11 9.73L14.11 9.73Q13.23 10.68 11.79 10.68L11.79 10.68L11.79 10.68Q10.61 10.68 10.07 10.06L10.07 10.06L10.07 10.06Q9.52 9.44 9.52 8.46L9.52 8.46L9.52 8.32L9.52 8.32Q9.52 7.20 10.20 6.66L10.20 6.66L10.20 6.66Q10.88 6.13 12.18 5.94L12.18 5.94L13.89 5.67L13.89 5.67Q13.87 5.10 13.65 4.84L13.65 4.84L13.65 4.84Q13.43 4.58 12.88 4.58L12.88 4.58L12.88 4.58Q11.89 4.58 11.89 5.53L11.89 5.53L9.80 5.53L9.80 5.40L9.80 5.40Q9.80 4.30 10.53 3.60L10.53 3.60L10.53 3.60Q11.26 2.90 12.95 2.90L12.95 2.90L12.95 2.90Q14.69 2.90 15.39 3.60L15.39 3.60L15.39 3.60Q16.10 4.30 16.10 5.73L16.10 5.73L16.10 8.40L16.24 10.50ZM12.60 8.89L12.60 8.89L12.60 8.89Q13.36 8.89 13.89 8.33L13.89 8.33L13.89 6.97L12.63 7.17L12.63 7.17Q11.72 7.32 11.72 8.05L11.72 8.05L11.72 8.13L11.72 8.13Q11.72 8.46 11.93 8.67L11.93 8.67L11.93 8.67Q12.15 8.89 12.60 8.89ZM20.08 2.90L20.08 2.90L20.08 2.90Q21.28 2.90 21.98 3.71L21.98 3.71L21.98-0.70L24.19-0.70L24.19 8.40L24.32 10.50L22.33 10.50L22.18 9.62L22.18 9.62Q21.45 10.68 20.08 10.68L20.08 10.68L20.08 10.68Q17.32 10.68 17.32 7.04L17.32 7.04L17.32 6.54L17.32 6.54Q17.32 2.90 20.08 2.90ZM21.98 8.08L21.98 5.50L21.98 5.50Q21.50 4.80 20.72 4.80L20.72 4.80L20.72 4.80Q19.52 4.80 19.52 6.54L19.52 6.54L19.52 7.04L19.52 7.04Q19.52 8.78 20.72 8.78L20.72 8.78L20.72 8.78Q21.50 8.78 21.98 8.08L21.98 8.08ZM25.61 8.11L25.61 3.08L27.80 3.08L27.80 7.74L27.80 7.74Q27.80 8.78 28.78 8.78L28.78 8.78L28.78 8.78Q29.61 8.78 30.09 8.08L30.09 8.08L30.09 3.08L32.30 3.08L32.30 8.40L32.42 10.50L30.45 10.50L30.28 9.56L30.28 9.56Q29.47 10.68 27.90 10.68L27.90 10.68L27.90 10.68Q26.71 10.68 26.16 9.95L26.16 9.95L26.16 9.95Q25.61 9.23 25.61 8.11L25.61 8.11ZM44.59 4.76L44.59 5.32L44.59 5.32Q44.59 8.13 43.52 9.32L43.52 9.32L43.52 9.32Q42.45 10.50 39.98 10.50L39.98 10.50L36.64 10.50L36.64-0.42L39.98-0.42L39.98-0.42Q42.45-0.42 43.52 0.76L43.52 0.76L43.52 0.76Q44.59 1.95 44.59 4.76L44.59 4.76ZM38.91 1.54L38.91 8.54L39.86 8.54L39.86 8.54Q41.23 8.54 41.75 7.78L41.75 7.78L41.75 7.78Q42.28 7.03 42.28 5.32L42.28 5.32L42.28 4.76L42.28 4.76Q42.28 3.05 41.75 2.30L41.75 2.30L41.75 2.30Q41.23 1.54 39.86 1.54L39.86 1.54L38.91 1.54ZM52.50 6.59L52.50 7.59L47.77 7.59L47.77 7.59Q47.82 8.34 48.17 8.67L48.17 8.67L48.17 8.67Q48.52 9.00 49.17 9.00L49.17 9.00L49.17 9.00Q49.73 9.00 50.07 8.74L50.07 8.74L50.07 8.74Q50.41 8.47 50.41 8.12L50.41 8.12L52.50 8.12L52.50 8.18L52.50 8.18Q52.50 9.27 51.61 9.97L51.61 9.97L51.61 9.97Q50.72 10.68 49.15 10.68L49.15 10.68L49.15 10.68Q47.38 10.68 46.47 9.67L46.47 9.67L46.47 9.67Q45.56 8.67 45.56 6.99L45.56 6.99L45.56 6.59L45.56 6.59Q45.56 4.93 46.47 3.91L46.47 3.91L46.47 3.91Q47.38 2.90 49.07 2.90L49.07 2.90L49.07 2.90Q50.76 2.90 51.63 3.91L51.63 3.91L51.63 3.91Q52.50 4.91 52.50 6.59L52.50 6.59ZM50.27 5.99L50.27 5.99Q50.18 4.58 49.03 4.58L49.03 4.58L49.03 4.58Q47.88 4.58 47.78 5.99L47.78 5.99L50.27 5.99ZM58.31 10.50L55.22 10.50L53.06 3.08L55.34 3.08L56.77 8.72L58.18 3.08L60.48 3.08L58.31 10.50Z"></path></g><!----><g data-v-423bf9ae="" id="a069f81c-50fd-4e92-acab-a002c4654be2" transform="matrix(1.0000000847710575,0,0,1.0000000847710575,-4.757503933334654,-5.000000423855283)" stroke="none" fill="#28208C"><path d="M85.434 5H14.566a9.325 9.325 0 0 0-9.324 9.324v71.352c0 5.148 4.175 9.324 9.324 9.324h70.867c5.149 0 9.324-4.176 9.324-9.324V14.324C94.758 9.175 90.583 5 85.434 5zM41.501 38.479l-.16.16-.184.132a250.76 250.76 0 0 0-3.595 2.642c-1.519 1.132-2.852 2.13-4.077 3.049a1060.783 1060.783 0 0 1-4.062 3.03c-1.293.96-2.515 1.854-3.632 2.659l-.219.157-.244.113c-.926.426-1.86.643-2.78.643-1.448 0-2.739-.501-3.731-1.449-1.028-.979-1.573-2.269-1.573-3.727 0-1.292.421-2.52 1.25-3.649l.245-.333.331-.249c.857-.644 1.871-1.396 3.01-2.233a288.068 288.068 0 0 0 3.406-2.546 307.258 307.258 0 0 1 3.474-2.598l.046-.034a395.269 395.269 0 0 1-3.364-2.618 497.213 497.213 0 0 0-3.449-2.683 107.815 107.815 0 0 1-2.837-2.244l-.215-.177-.176-.216c-.971-1.193-1.463-2.501-1.463-3.887 0-1.432.527-2.716 1.526-3.715.999-.998 2.306-1.526 3.778-1.526.736 0 1.527.166 2.417.508l.229.087.21.127c.298.179.717.479 1.789 1.367a79.726 79.726 0 0 0 2.641 2.081c1.077.819 2.23 1.721 3.43 2.679 1.164.932 2.281 1.804 3.321 2.593 1.092.832 2.029 1.56 2.786 2.164.748.6 1.229.983 1.441 1.153 1.882 1.487 2.278 3.235 2.278 4.439.001 1.028-.32 2.573-1.847 4.101zM77.405 61.27c-.808.888-1.924 1.512-3.32 1.862l-.335.085H50.133l-.127-.012c-2.116-.194-3.331-1.15-3.977-1.918-.871-1.039-1.331-2.25-1.331-3.504 0-1.364.524-2.634 1.517-3.671.974-1.018 2.318-1.607 3.998-1.752l.119-.011h23.626l.351.093c1.436.376 2.554 1.09 3.326 2.119.756 1.007 1.139 2.091 1.139 3.222-.001 1.294-.474 2.499-1.369 3.487z"></path></g><!----></svg>